<svg xmlns="http://www.w3.org/2000/svg" xmlns:xlink="http://www.w3.org/1999/xlink" version="1.1" x="0px" y="0px" viewBox="0 0 100 125" enable-background="new 0 0 100 100" xml:space="preserve"><path fill="#00adef" d="M34.72,18.93l0.67,0.8l1.36-1.14l1.47,0.6l-2.34,5.33l0.33,1.2l-1.85,2.77l-0.44,3.86l0.87,1.9l0.44,6.04  l1.06,1.33l-0.22-3.45l1.58,2.12l0.38,3.51c0,0,5.36,2.64,6.01,2.86c0.65,0.22,3.59,2.5,3.59,2.5l1.58,1.96l2.99,2.12l1.47-0.76  l0.82,1.66c0,0-3.54,4.92-3.43,5.52c0.109,0.6,1.029,2.39,1.029,2.39l-1.85,0.921l0.38,2.67l3.92,2.719l2.72,1.361l-1.25,4.899  l-3.48,5.28l4.791-0.051l1.689-2.18l6.69-3.641l2.5-2.34l0.329-1.629l3.811-1.141l2.28-5.33l3.319-4.3l-2.77-2.12l-1.9,0.92  l-2.18-1.14l-0.869-2.39L64.02,52l-5.279-2.34l-7.02,1.25l-1.311-1.36l0.6-1.52l-3.7-1.74l1.36-2.72l-1.69-0.98l-3.7,0.98l0.22-3.54  l1.52-1.9l2.94,0.6l2.01-0.22l3.049,3.86l0.711-1.47l-0.98-2.99l2.88-2.56v-1.52l2.12-2.72l4.57-1.74l-4.131-1.69  c0,0,3.051-0.44,3.371-0.33c0.33,0.11,1.469-1.31,1.469-1.31l-4.079-4.35L57.1,21.36l-1.959,0.05l-1.091,1.41l-0.329,2.61  l-4.301-3.05l0.76-1.47l1.96-0.11l2.879-2.01l1.521,1.47l1.69-0.54l-3.59-2.45l-2.5-2.45l-8.21,1.58l-1.41-1.56  c-2.79,1.02-5.41,2.4-7.8,4.08V18.93z"/><polygon fill="#000000" points="51.57,44.15 52.77,43.25 54.59,43.2 58.02,44.94 56.71,45.62 53.15,44.07 52.279,45.02 "/><polygon fill="#000000" points="59.08,45.48 57.77,46.6 59.41,47.23 60.55,45.84 "/><polygon fill="#000000" points="55.141,15.81 55.46,15.05 59,13.69 64.49,16.84 64.109,19.94 64.98,22.07 62.91,22.17 60.09,19.73   57.96,18.2 57.04,16.63 "/><path fill="#00adef" d="M65.71,16.18l0.96,1.78l6.82,2.58C71.12,18.76,68.51,17.29,65.71,16.18z M74.09,21l-2.33,1.34l1.25,2.29  l3.54,1.9l-2.03,0.8L78,30.59l1.27-2.27l1.471,2.67c0,0-1.2,1.36-1.2,1.74s1.58,4.62,1.58,4.62l-0.33,3.43l1.03,4.79l1.63,2.88  l0.979,1.9l2.541-1.4C86.99,48.48,87,48.01,87,47.54c0-10.78-5.05-20.38-12.92-26.55L74.09,21z"/><path fill="#00adef" d="M45.83,56.279c-1.892,0-3.88-0.033-6.076-0.101C21.526,55.547,3.14,51.877,3.14,45.1  c0-3.246,3.958-5.921,11.762-7.952c0.803-0.206,1.621,0.272,1.83,1.074c0.208,0.802-0.272,1.621-1.074,1.83  C8.145,42.006,6.14,44.145,6.14,45.1c0,2.825,12.005,7.328,33.711,8.081c2.16,0.066,4.117,0.099,5.979,0.099  c0.829,0,1.5,0.672,1.5,1.5S46.659,56.279,45.83,56.279z"/><path fill="#00adef" d="M79.01,21.63c-6.369-6.38-15.18-10.32-24.91-10.32c-9.729,0-18.53,3.94-24.91,10.32  C22.81,28,18.87,36.81,18.87,46.54c0,2.577,0.284,5.086,0.809,7.504c1.015,0.201,2.09,0.393,3.213,0.574  c-0.667-2.582-1.021-5.289-1.021-8.078c0-8.9,3.61-16.96,9.44-22.79s13.89-9.44,22.79-9.44c8.9,0,16.961,3.61,22.791,9.44  s9.439,13.89,9.439,22.79c0,8.899-3.609,16.96-9.439,22.79S63,78.77,54.1,78.77c-8.899,0-16.959-3.609-22.79-9.439  c-3.236-3.235-5.784-7.16-7.414-11.532c-1.149-0.169-2.272-0.352-3.364-0.549c1.728,5.419,4.727,10.271,8.658,14.201  C35.56,77.83,44.37,81.77,54.1,81.77c9.73,0,18.53-3.939,24.91-10.319c6.381-6.37,10.32-15.181,10.32-24.91  C89.33,36.81,85.391,28.01,79.01,21.63z"/><path fill="#00adef" d="M17.921,60.2c-0.102,0-0.206-0.01-0.309-0.032c-4.033-0.845-9.474-2.331-12.496-4.611  c-0.661-0.499-0.792-1.439-0.293-2.101c0.499-0.662,1.439-0.793,2.101-0.294c2.012,1.519,6.026,2.964,11.304,4.07  c0.811,0.17,1.331,0.965,1.161,1.775C19.24,59.715,18.616,60.2,17.921,60.2z"/><text x="0" y="115" fill="#000000" font-size="5px" font-weight="bold" font-family="'Helvetica Neue', Helvetica, Arial-Unicode, Arial, Sans-serif">Created by Katya Prokofyeva</text><text x="0" y="120" fill="#000000" font-size="5px" font-weight="bold" font-family="'Helvetica Neue', Helvetica, Arial-Unicode, Arial, Sans-serif">from the Noun Project</text></svg>