<svg xmlns:dc="http://purl.org/dc/elements/1.1/" xmlns:cc="http://creativecommons.org/ns#" xmlns:rdf="http://www.w3.org/1999/02/22-rdf-syntax-ns#" xmlns:svg="http://www.w3.org/2000/svg" xmlns="http://www.w3.org/2000/svg" xmlns:sodipodi="http://sodipodi.sourceforge.net/DTD/sodipodi-0.dtd" xmlns:inkscape="http://www.inkscape.org/namespaces/inkscape" version="1.1" x="0px" y="0px" viewBox="0 0 100 125"><g transform="translate(0,-952.36218)"><path d="m 31,958.36217 c -2.75269,0 -5,2.2473 -5,5 l 0,78.00003 c 0,2.7527 2.24731,5 5,5 l 38,0 c 2.75269,0 5,-2.2473 5,-5 l 0,-78.00003 c 0,-2.7527 -2.24731,-5 -5,-5 l -38,0 z m 0,2 38,0 c 1.67928,0 3,1.3207 3,3 l 0,3 -44,0 0,-3 c 0,-1.6793 1.32072,-3 3,-3 z m -3,8 44,0 0,64.00003 -44,0 0,-64.00003 z m 0,66.00003 44,0 0,7 c 0,1.6793 -1.32072,3 -3,3 l -38,0 c -1.67928,0 -3,-1.3207 -3,-3 l 0,-7 z m 22,3 c -1.10457,0 -2,0.8954 -2,2 0,1.1046 0.89543,2 2,2 1.10457,0 2,-0.8954 2,-2 0,-1.1046 -0.89543,-2 -2,-2 z" style="text-indent:0;text-transform:none;direction:ltr;block-progression:tb;baseline-shift:baseline;color:#000000;enable-background:accumulate;" fill="#ffffff" fill-opacity="1" stroke="none" marker="none" visibility="visible" display="inline" overflow="visible"/></g><text x="0" y="115" fill="#000000" font-size="5px" font-weight="bold" font-family="'Helvetica Neue', Helvetica, Arial-Unicode, Arial, Sans-serif">Created by unlimicon</text><text x="0" y="120" fill="#000000" font-size="5px" font-weight="bold" font-family="'Helvetica Neue', Helvetica, Arial-Unicode, Arial, Sans-serif">from the Noun Project</text></svg>