<svg xmlns:dc="http://purl.org/dc/elements/1.1/" xmlns:cc="http://creativecommons.org/ns#" xmlns:rdf="http://www.w3.org/1999/02/22-rdf-syntax-ns#" xmlns:svg="http://www.w3.org/2000/svg" xmlns="http://www.w3.org/2000/svg" xmlns:sodipodi="http://sodipodi.sourceforge.net/DTD/sodipodi-0.dtd" xmlns:inkscape="http://www.inkscape.org/namespaces/inkscape" version="1.1" x="0px" y="0px" viewBox="0 0 100 125"><g transform="translate(0,-952.36218)"><path d="m 12.00002,967.36218 c -2.7527098,0 -4.9999998,2.2473 -4.9999998,5 l 0,48.00002 c 0,2.7527 2.24729,5 4.9999998,5 l 30,0 0,10 -4,0 c -0.55228,0 -1,0.4477 -1,1 0,0.5523 0.44772,1 1,1 l 24,0 c 0.55228,0 1,-0.4477 1,-1 0,-0.5523 -0.44772,-1 -1,-1 l -4,0 0,-10 29.99996,0 c 2.7527,0 5,-2.2473 5,-5 l 0,-48.00002 c 0,-2.7527 -2.2473,-5 -5,-5 z m 0,2 75.99996,0 c 1.6793,0 3,1.3207 3,3 l 0,39.00002 -81.9999598,0 0,-39.00002 c 0,-1.6793 1.3206898,-3 2.9999998,-3 z m -2.9999998,44.00002 81.9999598,0 0,7 c 0,1.6793 -1.3207,3 -3,3 l -75.99996,0 c -1.67931,0 -2.9999998,-1.3207 -2.9999998,-3 z m 40.9999998,3 c -1.10457,0 -2,0.8954 -2,2 0,1.1046 0.89543,2 2,2 1.10457,0 2,-0.8954 2,-2 0,-1.1046 -0.89543,-2 -2,-2 z m -6,9 12,0 0,10 -12,0 z" style="text-indent:0;text-transform:none;direction:ltr;block-progression:tb;baseline-shift:baseline;color:#000000;enable-background:accumulate;" fill="#ffffff" fill-opacity="1" stroke="none" marker="none" visibility="visible" display="inline" overflow="visible"/></g><text x="0" y="115" fill="#000000" font-size="5px" font-weight="bold" font-family="'Helvetica Neue', Helvetica, Arial-Unicode, Arial, Sans-serif">Created by unlimicon</text><text x="0" y="120" fill="#000000" font-size="5px" font-weight="bold" font-family="'Helvetica Neue', Helvetica, Arial-Unicode, Arial, Sans-serif">from the Noun Project</text></svg>